<?xml version="1.0" encoding="utf-8"?>
<!-- Generator: Adobe Illustrator 24.1.3, SVG Export Plug-In . SVG Version: 6.00 Build 0)  -->
<svg version="1.1" id="Layer_1" xmlns="http://www.w3.org/2000/svg" xmlns:xlink="http://www.w3.org/1999/xlink" x="0px" y="0px"
	 viewBox="0 0 2353.6 2249" style="enable-background:new 0 0 2353.6 2249;" xml:space="preserve">
<style type="text/css">
	.st0{fill-rule:evenodd;clip-rule:evenodd;fill:#FFFFFF;}
</style>
<path class="st0" d="M270.1,1838H178v36.4h84.6v30.8H178v44.8h96.2v30.8H142.6v-173.5h127.6v30.7H270.1z M386.6,1933.6L404,1950
	c-6.1,3.1-12.8,4.7-19.6,4.6c-19.6,0-47.1-12.1-47.1-60.6s27.6-60.6,47.1-60.6c19.6,0,47.1,12.1,47.1,60.6c0,16.3-3.1,28.3-8,37.3
	l-18.4-17.1L386.6,1933.6z M468.5,1973.7l-18.9-17.8c10.6-13.6,18.2-33.4,18.2-61.9c0-81.4-60.4-91.3-83.4-91.3
	c-22.9,0-83.3,9.9-83.3,91.3c0,81.5,60.4,91.3,83.3,91.3c10.1,0,28-1.9,44.4-11.6l20.6,19.6L468.5,1973.7L468.5,1973.7z
	 M638.3,1920.1c0,45.6-27.6,65.2-71.3,65.2c-15.9,0-39.6-3.9-55.1-21c-9.4-10.6-13-24.7-13.5-42v-115h37v112.6
	c0,24.2,14,34.8,30.9,34.8c24.9,0,35-12.1,35-33.1v-114.3h37L638.3,1920.1L638.3,1920.1L638.3,1920.1z M735.4,1846.4h0.5l21.5,68.6
	h-44.3L735.4,1846.4z M703.5,1944.9h64.1l11.1,35.9H818l-61-173.5h-41.8l-61.9,173.5h38.2L703.5,1944.9L703.5,1944.9z M882.6,1949.4
	h86.2v31.4H846.3v-173.5h36.3V1949.4z M1106.2,1902.9v77.9H1070v-173.5h36.2v65.7h67.7v-65.7h36.2v173.5h-36.2v-77.9H1106.2z
	 M1279.2,1894c0-48.6,27.6-60.6,47.1-60.6c19.6,0,47.2,12.1,47.2,60.6s-27.6,60.6-47.2,60.6
	C1306.8,1954.6,1279.2,1942.6,1279.2,1894z M1243,1894c0,81.5,60.4,91.3,83.3,91.3c23,0,83.4-9.9,83.4-91.3s-60.4-91.3-83.4-91.3
	C1303.4,1802.7,1243,1812.6,1243,1894z M1582.7,1920.1c0,45.6-27.6,65.2-71.3,65.2c-16,0-39.6-3.9-55.1-21
	c-9.4-10.6-13-24.7-13.5-42v-115h36.9v112.6c0,24.2,14.1,34.8,31,34.8c24.9,0,35-12.1,35-33.1v-114.3h37V1920.1L1582.7,1920.1
	L1582.7,1920.1z M1649,1927.3c0.3,9.6,5.2,28,36.8,28c17.1,0,36.3-4.1,36.3-22.5c0-13.5-13-17.1-31.4-21.5l-18.6-4.4
	c-28.1-6.5-55.1-12.7-55.1-50.9c0-19.4,10.5-53.4,66.7-53.4c53.2,0,67.4,34.8,67.7,56h-34.8c-0.9-7.7-3.9-26.1-35.5-26.1
	c-13.7,0-30.2,5.1-30.2,20.8c0,13.6,11.1,16.4,18.3,18.1l42.3,10.4c23.7,5.8,45.4,15.5,45.4,46.6c0,52.3-53.1,56.8-68.4,56.8
	c-63.3,0-74.1-36.5-74.1-58L1649,1927.3L1649,1927.3L1649,1927.3z M1822.8,1980.8h-36.1v-173.5h36.1V1980.8L1822.8,1980.8z
	 M1967.6,1807.3h33.8v173.5h-36.2l-70.8-123.8h-0.6v123.8H1860v-173.5h38.2l68.8,120.8h0.6V1807.3L1967.6,1807.3z M2122.7,1887.3
	h72.4v93.5H2171l-3.6-21.7c-9.2,10.5-22.5,26.3-54.1,26.3c-41.8,0-79.7-29.9-79.7-90.8c0-47.3,26.3-92.1,84.7-91.8
	c53.2,0,74.3,34.5,76.1,58.5h-36.2c0-6.8-12.4-28.6-37.9-28.6c-25.9,0-49.8,17.9-49.8,62.3c0,47.4,25.9,59.7,50.5,59.7
	c8,0,34.6-3.1,42-38.2h-40.3V1887.3L2122.7,1887.3z M171.1,2157.6c0-48.6,27.5-60.7,47.1-60.7s47.1,12.1,47.1,60.7
	c0,48.5-27.5,60.7-47.1,60.7S171.1,2206.1,171.1,2157.6L171.1,2157.6z M134.8,2157.6c0,81.4,60.4,91.4,83.3,91.4
	c23,0,83.3-10,83.3-91.4s-60.4-91.3-83.3-91.3S134.8,2076.2,134.8,2157.6z M400.8,2151.8v-51h28.8c22.5,0,31.9,7.1,31.9,24
	c0,7.7,0,27-27.1,27H400.8L400.8,2151.8z M400.8,2181.8h41.5c46.7,0,55.3-39.7,55.3-55.4c0-34-20.2-55.6-53.9-55.6h-79.2v173.5h36.2
	L400.8,2181.8L400.8,2181.8z M596,2151.8v-51h28.7c22.5,0,31.9,7.1,31.9,24c0,7.7,0,27-27,27H596z M596,2181.8h41.6
	c46.6,0,55.3-39.7,55.3-55.4c0-34-20.3-55.6-53.9-55.6h-79.3v173.5H596V2181.8L596,2181.8z M783.5,2157.6
	c0-48.6,27.5-60.7,47.1-60.7c19.5,0,47.1,12.1,47.1,60.7c0,48.5-27.6,60.7-47.1,60.7C811,2218.3,783.5,2206.1,783.5,2157.6z
	 M747.3,2157.6c0,81.4,60.4,91.4,83.4,91.4c22.9,0,83.3-10,83.3-91.4s-60.4-91.3-83.3-91.3C807.7,2066.3,747.3,2076.2,747.3,2157.6z
	 M1012.6,2147.2v-46.5h45.1c21.3,0,25.3,13.6,25.3,22.8c0,17.2-9.1,23.7-28,23.7H1012.6z M977,2244.4h35.6v-67.9h37.4
	c26.8,0,28.3,9.1,28.3,32.8c0,17.8,1.4,26.8,3.8,35.1h40.1v-4.7c-7.7-2.9-7.7-9.2-7.7-34.4c0-32.5-7.7-37.7-22-44
	c17.1-5.7,26.8-22.2,26.8-41.3c0-15-8.4-49.1-54.6-49.1h-87.8L977,2244.4L977,2244.4z M1254.3,2244.4h-36.2v-142.8h-52.4v-30.7
	h141.1v30.7h-52.5V2244.4z M1501.3,2183.7c0,45.7-27.5,65.4-71.3,65.4c-15.9,0-39.5-4-55-21.2c-9.4-10.6-13-24.6-13.5-42v-115h36.9
	v112.6c0,24.2,14,34.9,30.9,34.9c24.9,0,35-12.2,35-33.2v-114.3h37V2183.7L1501.3,2183.7L1501.3,2183.7z M1676.6,2070.9h33.9v173.5
	h-36.3l-70.8-123.8h-0.4v123.8h-33.9v-173.5h38.2l68.9,120.8h0.4L1676.6,2070.9L1676.6,2070.9z M1812.7,2244.4h-36.4v-173.5h36.4
	V2244.4L1812.7,2244.4z M1954.2,2244.4H1918v-142.8h-52.3v-30.7h141v30.7h-52.5V2244.4z M2143.7,2244.4h-36.3v-65.5l-59.9-108h42.7
	l36,75.4l34.4-75.4h41l-58,108.4L2143.7,2244.4L2143.7,2244.4z M1168.1,0L0,575.3v270.2h130.7v810.6h2065.9V845.5h157V575.3
	L1168.1,0z M1943.9,1412H383.5V671.2L1168,270.3l775.8,400.9L1943.9,1412L1943.9,1412L1943.9,1412z"/>
<path class="st0" d="M1525.4,932.6H802V671.2h723.4V932.6z M1525.4,1307.6H802V1046h723.4V1307.6L1525.4,1307.6z"/>
</svg>
