<?xml version="1.0" encoding="UTF-8"?>
<svg id="Layer_2" data-name="Layer 2" xmlns="http://www.w3.org/2000/svg" viewBox="0 0 300 159.97">
  <defs>
    <style>
      .cls-1, .cls-2 {
        fill: #fff;
      }

      .cls-2 {
        fill-rule: evenodd;
      }
    </style>
  </defs>
  <g id="Layer_1-2" data-name="Layer 1">
    <g>
      <g>
        <path class="cls-1" d="M141.91,74.2l-12.45.03-3.99-11.97-3.99,11.97-12.45-.03,9.98,7.62-3.7,11.7,10.16-7.02,10.16,7.02-3.7-11.7,9.98-7.62Z"/>
        <path class="cls-2" d="M149.13,18.41c0,3.04-2.46,5.5-5.5,5.5s-5.5-2.46-5.5-5.5,2.46-5.5,5.5-5.5,5.5,2.46,5.5,5.5Z"/>
        <g>
          <path class="cls-2" d="M89.68,115.06c6.39-.47,13,1.43,15.93,4.97.83,1,1.73,2.7,1.91,4.08.41,3.05-1.13,6.05-2.8,7.01-1.31.75-3.96,1.08-6.37.89-2.49-.19-5.17-1.31-5.35-2.29-.18-.99.68-1.49,1.53-2.42.81-.89,1.65-1.89,1.4-3.82-.19-1.44-1.22-2.47-2.17-2.93-4.33-2.13-10.27,1.51-10.32,5.86-.03,2.42,1.68,4.3,2.93,5.61,3.02,3.13,6,4.94,8.79,8.16,1.62,1.87,3.53,4.31,3.57,7.52.01,1-.37,2.38-.51,2.8-1.49,4.59-5.67,7.48-10.96,8.79-5.36,1.33-11.95.81-15.93-2.17-1.02-.77-2.13-1.91-2.68-3.06-1.95-4.13.45-9.09,3.82-10.19,2.38-.78,5.44.46,7.01,1.66.81.62,2.03,1.67,1.91,2.68-.1.89-1.97,1.57-2.68,2.17-.73.62-1.73,1.54-1.66,3.19.18,4.09,6.6,3.4,9.43,1.78,2.48-1.42,3.69-3.71,2.42-7.01-1.25-3.23-4.7-5.86-7.9-8.16-3.67-2.63-9.07-6.01-8.28-13,.08-.68.35-1.81.64-2.55,2.22-5.67,9.38-9.05,16.31-9.56Z"/>
          <path class="cls-2" d="M115.8,135.57c.61.37,2.06-.11,2.68.26.82,2.7-1.6,3.22-4.08,3.06-1.68,3.36-3.19,6.97-4.21,11.47-.2.91-.88,3.81.25,4.21,1.25.44,3.41-2,3.95-2.55,1.24-1.24,2.02-2.24,3.06-3.31.73-4.25,2.44-8.32,4.33-11.72.64-1.15,1.11-2.52,2.17-3.19,2.29-1.44,7.78-.16,8.03,1.91.09.75-.5,1.62-1.02,2.42-2.21,3.43-4.03,6.96-5.61,11.34-.45,1.25-1.77,4.5-.38,5.1,1.43.62,3.54-3.13,4.08-4.08,2.13-3.72,3.78-7.39,5.61-11.09.38-.77.96-1.8,1.4-2.8.48-1.09.8-2.18,1.4-2.68,1.92-1.57,8.11-.46,8.41,1.53.19,1.27-1.82,3.43-2.42,4.46-1.84,3.13-3.23,5.52-4.33,9.17-.49,1.62-1.23,3.88.13,5.35,3.81-.99,5.63-3.97,7.9-6.5,1.05-4.4,3.47-9.78,6.63-12.36,2.87-2.34,10.03-3.24,12.11.51,1.74-4.92,4.59-10.87,7.14-15.93.81-1.61,1.89-4.26,3.19-4.84,2.34-1.06,8.48.69,8.67,2.68.09,1-2.01,3.32-2.55,4.21-2.48,4.06-4.89,8.85-7.01,13-2.31,4.52-4.42,8.87-6.24,13.89-.59,1.61-1.3,3.53-.76,5.35,1.29-.1,2.41-1,3.31-1.78,1.86-1.63,3.42-3.54,5.1-5.61.79-.97,1.89-1.93,2.42-2.93.38-.72.64-1.73,1.02-2.68.83-2.08,2.23-6.21,3.95-7.14,2.66-1.44,8.1.38,8.41,2.42.19,1.24-1.07,2.75-1.78,3.82-.86,1.28-1.52,2.34-2.17,3.44-1.33,2.27-2.96,4.93-3.19,7.9-.42,5.41,4.59,1.08,5.86-.13,1.52-1.45,2.86-2.99,3.82-4.21.89-5.45,5.23-12.36,10.83-14.02,3.4-1.01,7.66.13,8.54,2.8,3.06.91,4.15,5.18,3.06,9.05,4.29-.36,6.93-2.75,9.05-5.86.6-.87,1.3-2.52,2.04-2.8,1-.39,2.27.21,2.42.89.18.85-1.29,3.09-1.91,3.95-2.2,3.04-6.32,6.6-10.19,7.39-.59.12-1.62.16-2.29.13-2.36,4.91-5.48,10.66-13,10.58-4.4-.05-7.77-2.28-8.54-6.63-2.22,1.96-5.28,5.71-9.68,6.12-4.64.43-8.33-1.8-7.9-7.01-1.95,1.49-4.71,5.88-8.28,6.75-3.28.8-6.5-.95-7.26-3.7-1.61,1.52-3.55,3.62-6.5,3.95-3.84.43-8.19-1.67-8.66-5.48-1.9,1.32-4.03,4.97-7.39,5.48-4.27.65-6.99-1.47-7.39-5.35-.96.74-1.59,2.09-2.93,3.19-2.76,2.26-7.46,3.02-10.2.38-.74-.71-1.06-1.62-1.53-2.8-1.79,1.38-3.73,4.43-7.14,4.59-2.05.09-4.48-.47-5.86-1.91-2.06-2.15-2.04-5.97-1.4-9.43.6-3.25,1.63-6.37,2.42-9.17-1.29-.15-2.92.03-3.57-.76-.29-2.74,2.09-2.48,4.46-2.29.85-1.56,1.46-3.51,2.29-5.48,1.46-3.44,3.07-7.16,4.97-10.58.85-1.52,2.19-4.28,3.7-4.59,2.81-.58,7.51,1.19,7.65,3.06.06.89-.56,1.42-1.15,2.29-3.15,4.68-5.51,10.06-7.9,15.29ZM158.24,141.69c-1.93,2.81-3.15,5.14-4.21,8.92-.48,1.7-.94,4.81.38,5.22,1.67.53,3.38-1.83,4.08-2.8,2.27-3.17,3.19-5.42,4.21-9.56.29-1.18,1.22-5.07-.64-5.23-.13-.01-.22.12-.25.13-1.54.12-2.71,2.07-3.57,3.31ZM207.05,141.56c-2.76,1.89-5.69,6.44-6.12,10.83-.07.68-.14,1.58,0,2.29.47,2.38,3.2,2.24,4.71.89,1.84-1.63,3.4-5.11,3.82-7.77-1.38-1.25-2.91-3.57-2.04-6.24h-.38Z"/>
          <path class="cls-2" d="M192.52,121.04c2.12-.3,7.11,1.02,7.14,3.44.01,1.29-2.12,2.88-2.93,3.7-.91.91-2.03,2.76-3.44,3.19-1.87.56-5.09-.53-5.48-2.29-.27-1.22.56-2.93,1.02-4.08.78-1.97,1.32-3.62,3.7-3.95Z"/>
        </g>
        <path class="cls-2" d="M89.57,113.58c.67-.05,1.36-.08,2.05-.08h0v.74h0v-.74c5.05,0,9.68,1.3,12.83,3.5,3.03-.25,6.09-.47,9.18-.67.86-1.34,1.93-2.58,3.28-2.86.46-.1.96-.14,1.5-.14,2.25,0,5.18.87,6.77,2.38,8.12-.36,16.4-.55,24.83-.55s15.97.17,23.74.5c.53-.75,1.13-1.37,1.85-1.7.66-.3,1.5-.45,2.48-.45,2.26,0,6.02.93,7.58,2.78,47.36,2.99,88.08,11.61,114.35,21.52-25.79-15.52-97.42-33.58-150-33.58-63.02,0-124.21,18.06-150,33.58,18.51-6.98,44.2-13.32,74.33-17.51,3.64-4.11,9.81-6.32,15.24-6.72Z"/>
        <g>
          <path class="cls-2" d="M177.03,12.01c-2.45-.23-4.75-.62-7.15-.89.23-2.27-1.59-4.2-3.96-3.96-2.04.21-3.39,2.13-3.07,4.21.36,2.32,3.71,3.48,5.75,4.47,3.38,1.64,7.22,4.67,6.64,10.35-.49,4.82-5.05,8.98-10.34,9.07-2.99.05-5.58-1.03-7.41-2.68-2.25-2.03-3.92-4.84-3.58-9.32,2.45.23,4.75.62,7.15.89-.19,1.97,1.07,3.78,3.07,3.96,2.56.23,4.68-2.08,3.83-4.73-.37-1.17-2.74-2.19-4.34-2.94-1.56-.73-3.4-1.85-4.47-2.81-1.61-1.45-3.53-3.9-3.58-7.02C155.49,5.19,159.95.08,166.05,0c5.53-.07,10.41,4.09,10.98,9.2.11.94-.07,1.65,0,2.81Z"/>
          <path class="cls-2" d="M127.35,23.12c2.85,3.49,6.87,6.92,9.96,10.6-2.79.44-5.55.92-8.17,1.53-4.13-3.57-7.58-7.83-11.62-11.49.75,4.49,1.74,8.74,2.55,13.15-2.37.36-4.67.78-6.9,1.28-2.42-11.33-4.58-22.92-6.9-34.36,4.34-.43,8.62-1.98,12.77-2.3,4.44-.35,8.67,1.63,10.86,4.21,3.21,3.79,3.77,11.74,0,15.58-.74.75-1.57,1.08-2.55,1.79ZM122.88,17.75c3.94-2.12,2.49-8.78-2.04-9.2-1.94-.18-4.17.51-6.26,1.02.76,3.03,1.26,6.32,1.92,9.45,2.24-.68,4.6-.32,6.39-1.28Z"/>
          <path class="cls-2" d="M209.73,11.5c-.71,2.18-1.57,4.22-2.17,6.51-2.95-.8-5.66-1.83-8.43-2.81-3.06,8.73-6.04,17.54-9.07,26.31-2.29-.73-4.59-1.46-6.77-2.3,3.07-8.68,5.97-17.53,9.07-26.18-2.64-1.11-5.56-1.93-8.3-2.94.6-2.34,1.53-4.34,2.17-6.64,7.82,2.7,15.71,5.32,23.5,8.05Z"/>
          <path class="cls-2" d="M99.51,13.41c-4.39,1.66-8.5,3.6-12.9,5.24.76,2.3,1.89,4.25,2.68,6.51,3.19-1.33,6.35-2.68,9.58-3.96.87.81,1.07,2.09,1.53,3.19.45,1.07,1.14,2.06,1.4,3.19-3.28,1.27-6.41,2.7-9.71,3.96.97,2.09,1.81,4.32,2.81,6.39,4.26-1.78,8.63-3.46,12.77-5.36,1.2,1.95,2,4.3,2.94,6.51-6.56,2.64-12.96,5.43-19.54,8.05-4.48-10.85-9.32-21.34-13.79-32.19,6.46-2.65,12.96-5.26,19.29-8.05,1.2,1.95,1.99,4.32,2.94,6.51Z"/>
          <path class="cls-2" d="M73.71,24.65c-2.4,1.6-4.77,3.24-7.15,4.85,5.34,7.73,10.89,15.25,16.09,23.12-2.04,1.16-3.85,2.54-5.75,3.83-5.4-7.63-10.82-15.23-16.09-22.99-2.56,1.52-4.8,3.37-7.41,4.85-1.29-1.9-2.61-3.78-3.96-5.62,6.61-4.72,13.47-9.18,20.18-13.79h.26c1.17,2.02,2.73,3.66,3.83,5.75Z"/>
          <path class="cls-2" d="M222.88,58.24c-2.4-1.1-4.47-2.51-6.77-3.7.32-1.77.36-3.81.64-5.62-3.38-2.11-7.02-3.97-10.47-6-1.63,1.05-3.13,2.23-4.73,3.32-2.33-1.07-4.29-2.52-6.64-3.58,1.14-1.14,2.54-2,3.83-2.94,9.04-6.54,18.4-13.28,27.59-19.92-.85,12.61-2.46,25.55-3.45,38.44ZM211.9,39.08c1.91.86,3.55,1.98,5.36,2.94.24-2.49.81-5.32.77-7.66-1.99,1.63-4.2,3.03-6.13,4.73Z"/>
          <path class="cls-2" d="M261.33,47.13c-1.42,1.86-3.21,3.35-4.6,5.24-2.38-1.75-4.4-3.86-6.64-5.75-6.46,6.65-12.53,13.69-18.9,20.43-1.86-1.42-3.53-3.03-5.24-4.6,6.13-6.98,12.45-13.77,18.77-20.56-2.1-2.03-4.35-3.91-6.51-5.88,1.39-1.89,3.17-3.39,4.6-5.24,6.26,5.36,12.22,11.02,18.52,16.35Z"/>
          <path class="cls-2" d="M68.73,62.58c-9.72.54-19.03,1.49-28.74,2.04,2.7,2.75,7.06,6.46,10.73,9.71.47.42,1.17,1.11,1.79,1.66.51.45,1.89,1.3,1.92,1.53.02.18-.97,1.21-1.15,1.4-1.19,1.32-2.46,2.51-3.45,3.83-9.01-7.71-18.29-15.92-26.95-23.76,9.66-.69,19.24-1.45,28.86-2.17-4.28-4.24-9.72-8.47-14.3-12.9,1.43-1.8,3-3.47,4.6-5.11.11-.02.12.05.13.13,8.38,7.26,16.86,14.71,25.29,22.1.41.36,1.22.99,1.28,1.53Z"/>
          <path class="cls-2" d="M279.46,70.63c-2.02,1.22-3.71,2.76-5.75,3.96-2.76-3.71-5.47-7.47-8.3-11.11-1.99,1.2-3.75,2.64-5.62,3.96,1.94,2.96,4.28,5.51,6.13,8.56-1.97,1.27-3.66,2.81-5.75,3.96-1.95-2.87-4.05-5.57-6.13-8.3-2.01,1.14-3.6,2.7-5.62,3.83,2.58,4.02,5.67,7.53,8.3,11.49-2.03,1.21-3.7,2.77-5.75,3.96-4.15-5.68-8.47-11.2-12.52-16.99,9.56-6.66,18.9-13.54,28.35-20.31,4.32,5.55,8.51,11.24,12.64,16.99Z"/>
          <path class="cls-2" d="M48.42,86.08c-1.16,2.08-2.53,3.95-3.7,6-10-6.22-20.01-12.43-30.01-18.65,1.28-1.96,2.39-4.08,3.83-5.88,9.97,6.17,19.87,12.4,29.89,18.52Z"/>
        </g>
        <g>
          <path class="cls-2" d="M109.86,100.21c-3.34-4.33-4.52-2.98-2.64.09,1.31,2.14,2.72,3.8,3.96,5.11,1.15-.13,2.3-.25,3.46-.36-1.39-1.06-2.97-2.5-4.78-4.84Z"/>
          <path class="cls-2" d="M127.82,46.16c.66,3.13,3,2.18,5.43,3.79,3.85,2.54,6.35-.12,9.55,1.89.95.59,1.79,1.65,1.75,2.53-.14,2.83,1.97,6.12,4.67,4.96,4.26-1.82-1.69-5.12,2.79-7.52,2.65-1.42-2.58-6.06-1.81-9.32.15-.63.18-1.22.15-1.76,8.52,0,15.3,1.04,20.9,2.36.68,1.91,1.32,3.56,2.35,4.21,1.97,1.25,6.4,1.08,6.99,2.88,3.41,10.51,7.47,8.41,7.41,10.11-.19,4.88-2.04,1.03-6.39,1.79-6.55,1.15-.4-3.77-3.09-4.56-1.63-.47-5.84,1.53-7.49,1.73-6.74.79-2.12,3.79-.95,4.94,1.44,1.43,4.39-.28,5.62,1.01,1.23,1.28.56,4.37-2.71,5.35-4.69,1.4-4.22-4.43-5.62-1.9-4.52,8.16-6.33,5.46-7.78,7.83-.88,1.44-1.04,1.67-1.98,6.91-.77,4.3-4.56,3.82-5.24,8.3-.48,3.19,5.03,7.95,3.24,9.85-.81.86-5.96-.93-6.57-7.33-.09-.9-.67,1.27-4.48.2-2.92-.82-1.92,3.35-3.44,3.85-3.59,1.17-3.62-2.8-8.19.23-1.94,1.29-2.81,3.25-2.9,5.33,6.63-.39,13.31-.59,19.97-.59,34.59,0,76.87,7.66,109.34,17.31-3.79-12.51-28.36-81.22-110.85-81.22-24.16,0-43.35,5.93-58.52,14.63,1.77-.91,3.65-1.76,5.57-2.44,14.47-5.11,31.59-8.59,32.28-5.35Z"/>
          <path class="cls-2" d="M108.86,105.67c-1.59-1.62-3.18-3.7-4.3-6.18-2.86-6.36-11.89-6.47-13.41-18.26-1.55-12.12-13.41-18.81-12.47-19.77-28.02,21.32-38.66,51.45-41.04,59.28,20.37-6.52,45.1-12.05,71.22-15.06Z"/>
        </g>
      </g>
      <path class="cls-1" d="M239.88,131.44c0,2.3-1.8,4.1-4.15,4.1s-4.18-1.8-4.18-4.1,1.85-4.05,4.18-4.05,4.15,1.8,4.15,4.05ZM232.6,131.44c0,1.8,1.33,3.24,3.16,3.24s3.09-1.43,3.09-3.21-1.31-3.26-3.11-3.26-3.14,1.46-3.14,3.24ZM235.09,133.56h-.94v-4.05c.37-.07.89-.12,1.56-.12.77,0,1.11.12,1.41.3.22.17.4.49.4.89,0,.44-.35.79-.84.94v.05c.4.15.62.44.74.99.12.62.2.86.3,1.01h-1.01c-.12-.15-.2-.52-.32-.99-.07-.44-.32-.64-.84-.64h-.44v1.63ZM235.12,131.27h.44c.52,0,.94-.17.94-.59,0-.37-.27-.62-.86-.62-.25,0-.42.02-.52.05v1.16Z"/>
    </g>
  </g>
</svg>