<?xml version="1.0" encoding="utf-8"?>
<!-- Generator: Adobe Illustrator 24.1.3, SVG Export Plug-In . SVG Version: 6.00 Build 0)  -->
<svg version="1.1" id="Layer_1" xmlns="http://www.w3.org/2000/svg" xmlns:xlink="http://www.w3.org/1999/xlink" x="0px" y="0px"
	 viewBox="0 0 213.9 87.2" style="enable-background:new 0 0 213.9 87.2;" xml:space="preserve">
<g>
	<g>
		<path d="M1.9,16.6V1.1h9.7V3H3.8v4.8h6.8v1.8H3.8v7H1.9z"/>
		<path d="M21,13l1.8,0.2c-0.3,1.1-0.8,2-1.6,2.7c-0.8,0.6-1.8,0.9-3,0.9c-1.5,0-2.7-0.5-3.6-1.5c-0.9-1-1.3-2.4-1.3-4.2
			c0-1.9,0.5-3.3,1.4-4.4c0.9-1,2.1-1.6,3.5-1.6s2.5,0.5,3.4,1.5s1.3,2.5,1.3,4.3c0,0.1,0,0.3,0,0.5h-7.8c0.1,1.2,0.4,2.2,1,2.8
			c0.6,0.7,1.3,1,2.2,1c0.6,0,1.2-0.2,1.7-0.5C20.4,14.4,20.8,13.8,21,13z M15.2,9.9H21c0-0.9-0.3-1.6-0.6-2.1
			c-0.6-0.7-1.3-1.1-2.2-1.1c-0.8,0-1.5,0.3-2.1,0.9C15.6,8.2,15.3,8.9,15.2,9.9z"/>
		<path d="M31.9,16.6v-1.4c-0.7,1.1-1.6,1.7-2.9,1.7c-0.8,0-1.6-0.2-2.3-0.7c-0.7-0.5-1.2-1.2-1.6-2.1c-0.4-0.9-0.6-1.9-0.6-3
			s0.2-2.1,0.5-3s0.9-1.6,1.6-2.1s1.5-0.7,2.3-0.7c0.6,0,1.2,0.1,1.7,0.4s0.9,0.7,1.2,1.1V1.1h1.8v15.5
			C33.5,16.6,31.9,16.6,31.9,16.6z M26.3,11c0,1.4,0.3,2.5,0.8,3.2c0.6,0.7,1.2,1.1,2,1.1s1.4-0.3,2-1s0.8-1.7,0.8-3.1
			c0-1.5-0.3-2.7-0.8-3.4s-1.2-1.1-2-1.1s-1.4,0.3-2,1C26.5,8.4,26.3,9.5,26.3,11z"/>
		<path d="M43.4,13l1.8,0.2c-0.3,1.1-0.8,2-1.6,2.7c-0.8,0.6-1.8,0.9-3,0.9c-1.5,0-2.7-0.5-3.6-1.5c-0.9-1-1.3-2.4-1.3-4.2
			c0-1.9,0.5-3.3,1.4-4.4s2.1-1.6,3.5-1.6s2.5,0.5,3.4,1.5s1.3,2.5,1.3,4.3c0,0.1,0,0.3,0,0.5h-7.8c0.1,1.2,0.4,2.2,1,2.8
			c0.6,0.7,1.3,1,2.2,1c0.6,0,1.2-0.2,1.7-0.5C42.8,14.4,43.2,13.8,43.4,13z M37.6,9.9h5.8c-0.1-0.9-0.3-1.6-0.7-2.1
			c-0.6-0.7-1.3-1.1-2.2-1.1c-0.8,0-1.5,0.3-2.1,0.9C38,8.2,37.7,8.9,37.6,9.9z"/>
		<path d="M47.5,16.6V5.4h1.6v1.7c0.4-0.8,0.8-1.3,1.1-1.6c0.3-0.3,0.7-0.4,1.1-0.4c0.6,0,1.2,0.2,1.8,0.6l-0.6,1.8
			c-0.4-0.3-0.9-0.4-1.3-0.4c-0.4,0-0.7,0.1-1,0.4c-0.3,0.2-0.5,0.6-0.7,1c-0.2,0.7-0.3,1.4-0.3,2.2v5.9H47.5L47.5,16.6z"/>
		<path d="M61,15.2c-0.7,0.6-1.3,1-1.9,1.3c-0.6,0.2-1.3,0.4-2,0.4c-1.1,0-2-0.3-2.6-0.9s-0.9-1.4-0.9-2.3c0-0.5,0.1-1,0.3-1.5
			s0.5-0.8,0.9-1.1s0.8-0.5,1.3-0.6c0.3-0.1,0.9-0.2,1.6-0.3c1.4-0.2,2.5-0.4,3.2-0.7c0-0.3,0-0.4,0-0.5c0-0.8-0.2-1.3-0.5-1.6
			c-0.5-0.4-1.1-0.6-2-0.6c-0.8,0-1.4,0.2-1.8,0.5c-0.4,0.3-0.7,0.9-0.9,1.7L54,8.7c0.2-0.8,0.4-1.4,0.8-1.9
			c0.4-0.5,0.9-0.9,1.6-1.1c0.7-0.3,1.5-0.4,2.4-0.4s1.6,0.1,2.2,0.3s1,0.5,1.2,0.8s0.4,0.8,0.5,1.3c0.1,0.3,0.1,0.9,0.1,1.7v2.5
			c0,1.8,0,2.9,0.1,3.3c0.1,0.5,0.2,0.9,0.4,1.3h-1.8C61.2,16.2,61.1,15.7,61,15.2z M60.9,11c-0.6,0.3-1.6,0.5-2.9,0.7
			c-0.7,0.1-1.2,0.2-1.5,0.4c-0.3,0.1-0.5,0.3-0.7,0.6s-0.2,0.6-0.2,0.9c0,0.5,0.2,0.9,0.5,1.3c0.4,0.3,0.9,0.5,1.6,0.5
			c0.7,0,1.3-0.2,1.8-0.5s0.9-0.8,1.2-1.3c0.2-0.4,0.3-1.1,0.3-1.9L60.9,11L60.9,11z"/>
		<path d="M65.4,16.6V1.1h1.8v15.5C67.1,16.6,65.4,16.6,65.4,16.6z"/>
		<path d="M69.8,16.6V1.1h1.8v15.5C71.6,16.6,69.8,16.6,69.8,16.6z"/>
		<path d="M74.3,20.9l-0.2-1.8c0.4,0.1,0.7,0.2,1,0.2c0.4,0,0.7-0.1,0.9-0.2c0.2-0.1,0.4-0.3,0.6-0.6c0.1-0.2,0.3-0.7,0.5-1.4
			c0-0.1,0.1-0.3,0.2-0.5l-4-11.2h1.9l2.2,6.5c0.3,0.8,0.5,1.7,0.8,2.6c0.2-0.9,0.4-1.7,0.7-2.6l2.2-6.5h1.8l-4,11.4
			c-0.4,1.2-0.8,2.1-1,2.5c-0.3,0.6-0.7,1.1-1.1,1.4s-0.9,0.4-1.5,0.4C75.1,21.1,74.7,21,74.3,20.9z"/>
		<path d="M90.6,16.6V1.1h1.9v15.5H90.6z"/>
		<path d="M95.6,16.6V5.4h1.6V7c0.8-1.2,1.9-1.8,3.3-1.8c0.6,0,1.2,0.1,1.7,0.4c0.5,0.2,0.9,0.6,1.2,1c0.3,0.4,0.4,0.9,0.6,1.4
			c0.1,0.4,0.1,1,0.1,1.8v6.9h-1.8V9.8c0-0.8-0.1-1.4-0.2-1.7c-0.1-0.4-0.4-0.7-0.7-0.9c-0.4-0.2-0.8-0.3-1.2-0.3
			c-0.8,0-1.4,0.3-2,0.8c-0.5,0.5-0.8,1.5-0.8,2.9v6.1L95.6,16.6L95.6,16.6z"/>
		<path d="M106.1,13.2l1.8-0.3c0.1,0.8,0.4,1.3,0.8,1.7s1.1,0.6,1.9,0.6s1.4-0.2,1.8-0.5c0.4-0.4,0.6-0.8,0.6-1.2s-0.2-0.8-0.5-1
			c-0.2-0.2-0.8-0.4-1.8-0.6c-1.3-0.4-2.2-0.7-2.7-0.9c-0.5-0.3-0.9-0.6-1.1-1.1s-0.4-1-0.4-1.5s0.1-1,0.3-1.4s0.5-0.8,0.9-1.1
			c0.3-0.2,0.7-0.4,1.1-0.6c0.5-0.2,1-0.2,1.5-0.2c0.8,0,1.5,0.1,2.2,0.4c0.6,0.3,1.1,0.6,1.4,1s0.5,1,0.6,1.7l-1.7,0.3
			c-0.1-0.6-0.3-1-0.7-1.3s-0.9-0.5-1.6-0.5c-0.8,0-1.4,0.1-1.7,0.4s-0.5,0.6-0.5,1c0,0.2,0.1,0.5,0.2,0.7s0.4,0.4,0.7,0.5
			c0.2,0.1,0.7,0.2,1.6,0.5c1.3,0.4,2.1,0.7,2.6,0.9s0.9,0.6,1.2,1c0.3,0.4,0.4,1,0.4,1.6s-0.2,1.2-0.5,1.8s-0.8,1-1.5,1.3
			c-0.6,0.3-1.4,0.5-2.2,0.5c-1.4,0-2.4-0.3-3.1-0.9C106.7,15.3,106.3,14.4,106.1,13.2z"/>
		<path d="M123.7,16.6V15c-0.8,1.3-1.9,1.9-3.3,1.9c-0.6,0-1.2-0.1-1.7-0.4s-0.9-0.6-1.2-1s-0.4-0.9-0.5-1.4c-0.1-0.4-0.1-1-0.1-1.8
			V5.4h1.8v6.2c0,1,0,1.7,0.1,2c0.1,0.5,0.3,0.9,0.7,1.2c0.4,0.3,0.8,0.4,1.3,0.4s1-0.1,1.5-0.4c0.5-0.3,0.8-0.7,1-1.2
			s0.3-1.2,0.3-2.2v-6h1.8v11.2H123.7z"/>
		<path d="M128.1,16.6V5.4h1.6v1.7c0.4-0.8,0.8-1.3,1.1-1.6c0.3-0.3,0.7-0.4,1.1-0.4c0.6,0,1.2,0.2,1.8,0.6l-0.6,1.8
			c-0.4-0.3-0.9-0.4-1.3-0.4c-0.4,0-0.7,0.1-1,0.4c-0.3,0.2-0.5,0.6-0.7,1c-0.2,0.7-0.3,1.4-0.3,2.2v5.9H128.1L128.1,16.6z"/>
		<path d="M141.9,13l1.8,0.2c-0.3,1.1-0.8,2-1.6,2.7c-0.8,0.6-1.8,0.9-3,0.9c-1.5,0-2.7-0.5-3.6-1.5c-0.9-1-1.3-2.4-1.3-4.2
			c0-1.9,0.5-3.3,1.4-4.4s2.1-1.6,3.5-1.6s2.5,0.5,3.4,1.5s1.3,2.5,1.3,4.3c0,0.1,0,0.3,0,0.5H136c0.1,1.2,0.4,2.2,1,2.8
			c0.6,0.7,1.3,1,2.2,1c0.6,0,1.2-0.2,1.7-0.5C141.3,14.4,141.7,13.8,141.9,13z M136.1,9.9h5.8c-0.1-0.9-0.3-1.6-0.7-2.1
			c-0.6-0.7-1.3-1.1-2.2-1.1c-0.8,0-1.5,0.3-2.1,0.9C136.5,8.2,136.2,8.9,136.1,9.9z"/>
		<path d="M152.8,16.6v-1.4c-0.7,1.1-1.6,1.7-2.9,1.7c-0.8,0-1.6-0.2-2.3-0.7s-1.2-1.2-1.6-2.1s-0.6-1.9-0.6-3s0.2-2.1,0.5-3
			s0.9-1.6,1.6-2.1c0.7-0.5,1.5-0.7,2.3-0.7c0.6,0,1.2,0.1,1.7,0.4s0.9,0.7,1.2,1.1V1.1h1.8v15.5C154.4,16.6,152.8,16.6,152.8,16.6z
			 M147.2,11c0,1.4,0.3,2.5,0.8,3.2c0.6,0.7,1.2,1.1,2,1.1s1.4-0.3,2-1s0.8-1.7,0.8-3.1c0-1.5-0.3-2.7-0.8-3.4
			c-0.6-0.7-1.2-1.1-2-1.1s-1.4,0.3-2,1C147.4,8.4,147.2,9.5,147.2,11z"/>
		<path d="M164.4,16.6h-1.6V1.1h1.8v5.5c0.7-1,1.7-1.5,2.9-1.5c0.6,0,1.3,0.1,1.8,0.4c0.6,0.3,1,0.7,1.4,1.2s0.7,1.1,0.9,1.8
			s0.3,1.5,0.3,2.3c0,1.9-0.4,3.4-1.3,4.4c-0.9,1-1.9,1.6-3.2,1.6c-1.2,0-2.2-0.6-2.9-1.7L164.4,16.6L164.4,16.6z M164.4,10.9
			c0,1.3,0.2,2.3,0.5,2.9c0.6,1,1.3,1.5,2.3,1.5c0.8,0,1.4-0.4,2-1.1s0.8-1.8,0.8-3.2c0-1.5-0.3-2.5-0.8-3.2s-1.2-1-2-1
			s-1.4,0.4-2,1.1C164.7,8.5,164.4,9.5,164.4,10.9z"/>
		<path d="M173.9,20.9l-0.2-1.8c0.4,0.1,0.7,0.2,1,0.2c0.4,0,0.7-0.1,0.9-0.2s0.4-0.3,0.6-0.6c0.1-0.2,0.3-0.7,0.5-1.4
			c0-0.1,0.1-0.3,0.2-0.5l-4-11.2h1.9l2.2,6.5c0.3,0.8,0.5,1.7,0.8,2.6c0.2-0.9,0.4-1.7,0.7-2.6l2.2-6.5h1.8l-4,11.4
			c-0.4,1.2-0.8,2.1-1,2.5c-0.3,0.6-0.7,1.1-1.1,1.4c-0.4,0.3-0.9,0.4-1.5,0.4C174.7,21.1,174.3,21,173.9,20.9z"/>
	</g>
	<g>
		<g>
			<path d="M1,31.2h14.4l18.7,33.2h0.2V31.2h13.2V85H33L14.3,51.4h-0.1V85H1V31.2z"/>
			<path d="M91.2,50.4c-0.8-5.4-5-8.3-10.9-8.3c-9,0-12.5,8-12.5,16s3.5,16,12.5,16c6.6,0,10.3-3.8,10.9-10h14
				c-0.8,13.9-10.9,22-24.6,22c-16.3,0-26.8-12.4-26.8-28s10.6-28,26.8-28c11.6,0,24.2,7.4,24.6,20.4
				C105.3,50.4,91.2,50.4,91.2,50.4z"/>
			<path d="M157.8,62.8c0,15.6-7.2,23.4-23.4,23.4S111,78.4,111,62.8V31.2h14v32.4c0,6.9,2.6,10.5,9.4,10.5c6.8,0,9.4-3.5,9.4-10.5
				V31.2h14L157.8,62.8L157.8,62.8z"/>
		</g>
		<g>
			<path d="M178.7,31.2H193L213.1,85h-14.6l-3.3-9.7h-18.8L173,85h-14.4L178.7,31.2z M179.6,64.9h12.2l-6-18.8h-0.2L179.6,64.9z"/>
		</g>
	</g>
</g>
</svg>
