<?xml version="1.0" encoding="utf-8"?>
<!-- Generator: Adobe Illustrator 23.0.3, SVG Export Plug-In . SVG Version: 6.00 Build 0)  -->
<svg version="1.1" id="Layer_1" xmlns:xml="http://www.w3.org/XML/1998/namespace"
	 xmlns="http://www.w3.org/2000/svg" xmlns:xlink="http://www.w3.org/1999/xlink" x="0px" y="0px" viewBox="0 0 360 360"
	 style="enable-background:new 0 0 360 360;" xml:space="preserve">
<style type="text/css">
	.st0{fill:#0D5CAB;}
</style>
<g>
	<path class="st0" d="M324,0H36C16.1,0,0,16.1,0,36v288c0,19.9,16.1,36,36,36h288c19.9,0,36-16.1,36-36V36C360,16.1,343.9,0,324,0z
		 M102.8,134.8v178.4c0,0.6-0.1,1.3-0.1,1.9H42.2c0-0.4,0-0.9,0-1.3V132.9h60.4c0,0.3,0.1,0.5,0.1,0.8
		C102.9,134,102.8,134.4,102.8,134.8z M105.7,86.2c-2.7,8.7-8.5,14.7-16.6,18.5c-0.1,0-0.1,0-0.2,0.1c-4,1.8-8.2,2.7-12.6,3
		c-4.7,0.4-9.3,0.1-13.9-1c-4.4-1-8.4-3-11.8-5.6c-5.7-4.4-9.7-10.6-11.1-17.4c-1.4-6.8-1.1-13.5,1.7-20c3.6-8.3,10-13.8,18.5-16.8
		c3-1.1,6-1.6,9.2-1.9c0.4,0,0.8-0.1,1.1-0.2h6.1c1.1,0.2,2.1,0.3,3.2,0.5c7.4,1,13.8,4,19.1,9.4c4.5,4.7,7.2,10.3,8.1,16.8
		C107.3,76.5,107.2,81.4,105.7,86.2z M321.3,315.1h-60.5c0-0.1,0-0.2,0-0.3c0-12.3,0-24.6,0-36.9c0-16.8,0-33.5,0-50.3
		c0-3.9,0-7.8,0-11.8c0-4.8-0.5-9.5-1.4-14.1c-0.9-4.4-2.3-8.6-4.6-12.5c-3.6-6.1-8.8-10-15.7-11.7c-4.1-1-8.2-1.2-12.4-0.8
		c-6.3,0.5-11.9,2.7-16.7,6.9c-3.5,3-6.3,6.5-8.6,10.5c-1.9,3.4-3.4,7-3.9,10.9c-0.4,3.1-0.5,6.3-0.5,9.4c0,22.1,0,44.1,0,66.2v32.3
		c0,0.8,0,1.6,0,2.4h-60.5c0-6.8,0.1-13.7,0.1-20.5c0-4.4,0-8.9,0.1-13.3c0.1-42.4,0.2-84.9,0.2-127.3c0-6.5-0.3-13.1-0.4-19.7
		c0-0.5,0-0.9,0-1.4h60.5v25.3c0.1,0,0.2,0.1,0.3,0.1c0.2-0.3,0.5-0.7,0.7-1c4-6,8.7-11.3,14.4-15.8c7.5-6,16-9.9,25.4-11.7
		c13-2.4,25.9-1.9,38.5,2.4c6,2,11.3,4.7,16.1,8.1c8.6,6,15.3,14.2,20.3,24.4c3.4,7,5.5,14.4,6.9,22.1c1,5.7,1.7,11.4,1.7,17.2
		c0,0.5,0.1,0.9,0.2,1.4V315.1z"/>
</g>
</svg>
